<?xml version="1.0" encoding="UTF-8"?>
<svg version="1.1" xmlns="http://www.w3.org/2000/svg" width="77" height="77">
<path d="M0 0 C1.80004883 0.18823242 1.80004883 0.18823242 4 1 C5.6315918 3.16137695 5.6315918 3.16137695 7.19921875 5.98828125 C7.76833984 7.00470703 8.33746094 8.02113281 8.92382812 9.06835938 C9.7968457 10.67420898 9.7968457 10.67420898 10.6875 12.3125 C11.28111328 13.37146484 11.87472656 14.43042969 12.48632812 15.52148438 C17.47047764 24.51795951 17.47047764 24.51795951 18 28 C16.4505907 29.5494093 14.96250542 29.43052715 12.8125 29.625 C9.82842141 29.57778357 8.49814597 29.45965287 6.28125 27.4140625 C4.6560029 25.01941651 3.33042205 22.5702159 2 20 C1.39285156 19.01386719 0.78570312 18.02773438 0.16015625 17.01171875 C-4.27765757 9.36935666 -4.27765757 9.36935666 -3.484375 5.45703125 C-2.47428111 3.44751348 -1.42150543 1.73853182 0 0 Z M1 6 C1.49861963 11.04756482 3.24903307 14.66861988 5.9375 18.875 C6.29779297 19.46796875 6.65808594 20.0609375 7.02929688 20.671875 C7.9573294 22.15535978 8.97241336 23.58365359 10 25 C10.66 25 11.32 25 12 25 C10.62309544 20.25652774 8.56160559 16.27474838 5.9375 12.125 C5.57333984 11.53203125 5.20917969 10.9390625 4.83398438 10.328125 C3.9218371 8.86464287 2.96486632 7.4292745 2 6 C1.67 6 1.34 6 1 6 Z " fill="#B78F2E" transform="translate(44,24)"/>
<path d="M0 0 C0.99 0 1.98 0 3 0 C5.94234477 3.7051749 6.49555177 6.34943726 6 11 C4.78661675 13.89978646 3.23457098 16.55421548 1.625 19.25 C1.2125 19.96929687 0.8 20.68859375 0.375 21.4296875 C-1.26679469 24.25781125 -2.67711054 26.67711054 -5 29 C-7.1640625 29.1953125 -7.1640625 29.1953125 -9.625 29.125 C-10.44226563 29.10695313 -11.25953125 29.08890625 -12.1015625 29.0703125 C-12.72804688 29.04710938 -13.35453125 29.02390625 -14 29 C-15 26 -15 26 -14.27490234 24.1340332 C-13.68636475 23.10282349 -13.68636475 23.10282349 -13.0859375 22.05078125 C-12.65410156 21.28443359 -12.22226562 20.51808594 -11.77734375 19.72851562 C-11.31457031 18.93123047 -10.85179687 18.13394531 -10.375 17.3125 C-9.71564453 16.14557617 -9.71564453 16.14557617 -9.04296875 14.95507812 C-7.71677051 12.62353606 -6.36143776 10.31110685 -5 8 C-4.5555957 7.21931152 -4.11119141 6.43862305 -3.65332031 5.63427734 C-3.22374023 4.90289551 -2.79416016 4.17151367 -2.3515625 3.41796875 C-1.78042725 2.43026489 -1.78042725 2.43026489 -1.19775391 1.42260742 C-0.80249512 0.95314697 -0.40723633 0.48368652 0 0 Z M1 6 C-2.63 11.94 -6.26 17.88 -10 24 C-9.01 24.33 -8.02 24.66 -7 25 C-5.46358856 22.59205692 -3.94603605 20.17531353 -2.4375 17.75 C-1.99986328 17.06808594 -1.56222656 16.38617188 -1.11132812 15.68359375 C-0.70205078 15.01972656 -0.29277344 14.35585938 0.12890625 13.671875 C0.51119385 13.0644043 0.89348145 12.45693359 1.28735352 11.83105469 C2.32866468 9.67730541 2.32866468 9.67730541 1 6 Z " fill="#B88E2D" transform="translate(30,24)"/>
<path d="M0 0 C1.828125 0.2265625 1.828125 0.2265625 4 1 C5.484375 2.9609375 5.484375 2.9609375 6.75 5.375 C7.17796875 6.16648437 7.6059375 6.95796875 8.046875 7.7734375 C9 10 9 10 9 13 C4.05 13 -0.9 13 -6 13 C-5.15071984 8.75359922 -4.67656891 7.07480937 -2.4375 3.6875 C-1.98246094 2.99011719 -1.52742188 2.29273438 -1.05859375 1.57421875 C-0.70925781 1.05472656 -0.35992187 0.53523438 0 0 Z M1 6 C0.67 6.99 0.34 7.98 0 9 C0.99 9 1.98 9 3 9 C2.67 8.01 2.34 7.02 2 6 C1.67 6 1.34 6 1 6 Z " fill="#B48B2D" transform="translate(37,37)"/>
</svg>
